<svg viewBox="0 0 64 64" xmlns="http://www.w3.org/2000/svg"><path d="M49 53h5v8h-5z" fill="#85b4e0" class="fill-85b4e0"></path><path d="M49 45h5v8h-5z" fill="#0468ad" class="fill-0468ad"></path><path d="M49 37h5v8h-5z" fill="#85b4e0" class="fill-85b4e0"></path><path d="M49 29h5v8h-5z" fill="#0468ad" class="fill-0468ad"></path><path d="M49 21h5v8h-5z" fill="#85b4e0" class="fill-85b4e0"></path><path d="M49 13h5v8h-5z" fill="#0468ad" class="fill-0468ad"></path><path d="M10 3h40v58H10z" fill="#d9dae2" class="fill-d9dae2"></path><path d="M47 18V3h3v58H10v-3.124A39.993 39.993 0 0 0 47 18Z" fill="#cfcfd9" class="fill-cfcfd9"></path><circle cx="32" cy="22" r="11" fill="#ffffff" class="fill-ffffff"></circle><rect height="6" rx="3" ry="3" width="6" x="29" y="17" fill="#027de5" class="fill-027de5"></rect><path d="M33.935 23h-3.87A3.065 3.065 0 0 0 27 26.065v5.725a10.936 10.936 0 0 0 10 0v-5.725A3.065 3.065 0 0 0 33.935 23Z" fill="#027de5" class="fill-027de5"></path><path d="M6 12h10v4H6zM6 21h10v4H6zM6 30h10v4H6zM6 39h10v4H6zM6 48h10v4H6z" fill="#3ebef0" class="fill-cceaff"></path><path d="M23 37h18v2H23zM23 41h18v2H23zM23 45h18v2H23zM22 56a1 1 0 0 1-.707-.293l-2-2 1.414-1.414L22 53.586l3.293-3.293 1.414 1.414-4 4A1 1 0 0 1 22 56ZM31 56a1 1 0 0 1-.707-.293l-2-2 1.414-1.414L31 53.586l3.293-3.293 1.414 1.414-4 4A1 1 0 0 1 31 56ZM40 56a1 1 0 0 1-.707-.293l-2-2 1.414-1.414L40 53.586l3.293-3.293 1.414 1.414-4 4A1 1 0 0 1 40 56Z" fill="#444444" class="fill-444444"></path><path d="M54 12h-3V3a1 1 0 0 0-1-1H10a1 1 0 0 0-1 1v8H6a1 1 0 0 0-1 1v4a1 1 0 0 0 1 1h3v3H6a1 1 0 0 0-1 1v4a1 1 0 0 0 1 1h3v3H6a1 1 0 0 0-1 1v4a1 1 0 0 0 1 1h3v3H6a1 1 0 0 0-1 1v4a1 1 0 0 0 1 1h3v3H6a1 1 0 0 0-1 1v4a1 1 0 0 0 1 1h3v8a1 1 0 0 0 1 1h44a1 1 0 0 0 1-1V13a1 1 0 0 0-1-1ZM7 15v-2h8v2Zm0 9v-2h8v2Zm0 9v-2h8v2Zm0 9v-2h8v2Zm0 7h8v2H7Zm42 11H11v-7h5a1 1 0 0 0 1-1v-4a1 1 0 0 0-1-1h-5v-3h5a1 1 0 0 0 1-1v-4a1 1 0 0 0-1-1h-5v-3h5a1 1 0 0 0 1-1v-4a1 1 0 0 0-1-1h-5v-3h5a1 1 0 0 0 1-1v-4a1 1 0 0 0-1-1h-5v-3h5a1 1 0 0 0 1-1v-4a1 1 0 0 0-1-1h-5V4h38Zm4 0h-2v-6h2Zm0-8h-2v-6h2Zm0-8h-2v-6h2Zm0-8h-2v-6h2Zm0-8h-2v-6h2Zm0-8h-2v-6h2Z" fill="#000000" class="fill-000000"></path></svg>